<svg width="25" height="24" viewBox="0 0 25 24" fill="none" xmlns="http://www.w3.org/2000/svg">
<path d="M12.7952 15.498C14.7164 15.498 16.2739 13.9393 16.2739 12.0165C16.2739 10.0938 14.7164 8.53503 12.7952 8.53503C10.8739 8.53503 9.31641 10.0938 9.31641 12.0165C9.31641 13.9393 10.8739 15.498 12.7952 15.498Z" fill="#CDDC36"/>
<path d="M0.788086 11.1465L6.27374 5.65649H2.5612C1.54112 7.31878 0.933146 9.20114 0.788086 11.1465Z" fill="#DAE233"/>
<path d="M11.9587 0C9.94474 0.127315 7.99782 0.773184 6.30664 1.875V5.658L11.9587 0Z" fill="#DAE233"/>
<path d="M24.7691 11.1465L19.2834 5.65649H22.996C24.0305 7.31208 24.6396 9.19811 24.7691 11.1465Z" fill="#DAE233"/>
<path d="M13.6316 0C15.6455 0.127382 17.5924 0.773246 19.2836 1.875V5.658L13.6316 0Z" fill="#DAE233"/>
<path d="M6.30671 12.786H0.821045C0.9503 14.7344 1.55942 16.6205 2.59412 18.276H6.30671V12.786Z" fill="#DAE233"/>
<path d="M19.3179 12.786H24.8036C24.6742 14.7344 24.0651 16.6204 23.0305 18.276H19.3179V12.786Z" fill="#DAE233"/>
<path d="M11.9587 5.59052L6.41312 11.1405H0.788086L11.9587 -0.00598145V5.59052Z" fill="#46B746"/>
<path d="M13.6313 23.9655C15.6561 23.8934 17.6226 23.2683 19.3179 22.158V12.786L13.6313 18.477V23.9655Z" fill="#46B746"/>
<path d="M11.9257 18.444L6.30664 12.8205V22.1925C8.00309 23.2733 9.95032 23.8961 11.9587 24V18.45L11.9257 18.444Z" fill="#46B746"/>
<path d="M13.6313 5.59051L19.177 11.1405H24.7961L13.6313 0V5.59051Z" fill="#46B746"/>
</svg>
